<svg xmlns="http://www.w3.org/2000/svg" viewBox="0 0 500 320" width="100%" height="100%">
  <rect width="500" height="320" fill="#f8fafc" rx="8"/>
  <text x="250" y="24" text-anchor="middle" font-size="16" font-weight="bold" fill="#334155">满二叉树（深度3，共7个节点）</text>
  <g transform="translate(0, 30)"><line x1="250" y1="72" x2="130" y2="108" stroke="#94a3b8" stroke-width="1.5"/><line x1="250" y1="72" x2="370" y2="108" stroke="#94a3b8" stroke-width="1.5"/><line x1="130" y1="152" x2="60" y2="188" stroke="#94a3b8" stroke-width="1.5"/><line x1="130" y1="152" x2="200" y2="188" stroke="#94a3b8" stroke-width="1.5"/><line x1="370" y1="152" x2="300" y2="188" stroke="#94a3b8" stroke-width="1.5"/><line x1="370" y1="152" x2="440" y2="188" stroke="#94a3b8" stroke-width="1.5"/>
    <circle cx="250" cy="50" r="22" fill="#e0f2fe" stroke="#0284c7" stroke-width="2"/>
    <text x="250" y="54" text-anchor="middle" font-size="13" font-weight="bold" fill="#1e293b">1</text>
    <circle cx="130" cy="130" r="22" fill="#e0f2fe" stroke="#0284c7" stroke-width="2"/>
    <text x="130" y="134" text-anchor="middle" font-size="13" font-weight="bold" fill="#1e293b">2</text>
    <circle cx="370" cy="130" r="22" fill="#e0f2fe" stroke="#0284c7" stroke-width="2"/>
    <text x="370" y="134" text-anchor="middle" font-size="13" font-weight="bold" fill="#1e293b">3</text>
    <circle cx="60" cy="210" r="22" fill="#e0f2fe" stroke="#0284c7" stroke-width="2"/>
    <text x="60" y="214" text-anchor="middle" font-size="13" font-weight="bold" fill="#1e293b">4</text>
    <circle cx="200" cy="210" r="22" fill="#e0f2fe" stroke="#0284c7" stroke-width="2"/>
    <text x="200" y="214" text-anchor="middle" font-size="13" font-weight="bold" fill="#1e293b">5</text>
    <circle cx="300" cy="210" r="22" fill="#e0f2fe" stroke="#0284c7" stroke-width="2"/>
    <text x="300" y="214" text-anchor="middle" font-size="13" font-weight="bold" fill="#1e293b">6</text>
    <circle cx="440" cy="210" r="22" fill="#e0f2fe" stroke="#0284c7" stroke-width="2"/>
    <text x="440" y="214" text-anchor="middle" font-size="13" font-weight="bold" fill="#1e293b">7</text></g></svg>